<svg width="800" height="800" viewBox="0 0 800 800" fill="none" xmlns="http://www.w3.org/2000/svg">
<path class="t01" d="M767 399.5C767 609.092 600.002 779 394 779C187.998 779 21.0001 609.092 21.0001 399.5C21.0001 189.908 187.998 20 394 20C600.002 20 767 189.908 767 399.5Z" fill="#e25300"/>
<path d="M130.782 695.84C293.908 844.288 547.393 832.344 695.841 669.218C844.288 506.092 832.347 252.609 669.22 104.161C506.094 -44.2864 252.609 -32.3465 104.161 130.78C-44.2862 293.906 -32.3443 547.393 130.782 695.84ZM641.625 134.485L157.704 666.257C23.1043 543.769 12.7367 293.647 135.225 159.048C257.713 24.4482 507.026 11.9969 641.625 134.485Z" fill="black"/>
</svg>
